<?xml version="1.0" standalone="no"?>
<!DOCTYPE svg PUBLIC "-//W3C//DTD SVG 20010904//EN"
 "http://www.w3.org/TR/2001/REC-SVG-20010904/DTD/svg10.dtd">
<svg version="1.0" xmlns="http://www.w3.org/2000/svg"
 width="512.000000pt" height="512.000000pt" viewBox="0 0 512.000000 512.000000"
 preserveAspectRatio="xMidYMid meet">

<g transform="translate(0.000000,512.000000) scale(0.100000,-0.100000)"
fill="#000000" stroke="none">
<path d="M1966 5104 c-189 -46 -346 -205 -391 -396 -12 -52 -15 -177 -15 -725
l0 -663 -542 0 c-443 0 -554 -3 -606 -15 -193 -46 -351 -203 -397 -396 -22
-95 -22 -1762 0 -1857 43 -183 197 -345 373 -391 l42 -12 0 -284 c0 -306 3
-326 51 -351 38 -19 68 -18 104 5 17 11 188 154 380 320 l350 300 885 1 c982
0 952 -1 1081 66 83 44 176 139 219 224 59 118 60 122 60 848 l0 662 123 0
122 -1 350 -300 c193 -165 364 -309 380 -320 36 -23 66 -24 104 -5 48 25 51
45 51 351 l0 284 42 12 c177 47 330 207 373 390 22 95 22 1762 0 1857 -46 193
-203 351 -396 397 -84 19 -922 22 -964 3 -29 -13 -55 -55 -55 -88 0 -29 26
-76 47 -86 10 -5 225 -11 478 -14 l460 -5 56 -28 c66 -32 132 -99 162 -165
l22 -47 0 -895 0 -895 -22 -47 c-48 -104 -152 -181 -263 -193 -72 -8 -108 -23
-123 -49 -8 -14 -14 -97 -17 -248 l-5 -226 -298 254 c-164 140 -308 256 -320
259 -12 3 -436 6 -942 8 l-920 2 -58 29 c-68 35 -130 98 -160 164 l-22 47 0
895 0 895 28 57 c31 64 95 125 165 160 46 23 52 23 507 28 253 3 468 9 478 14
21 10 47 57 47 86 0 33 -26 75 -55 88 -40 19 -890 15 -969 -4z m-406 -2086 c0
-153 34 -269 107 -366 19 -25 22 -36 14 -46 -16 -19 -451 -1164 -451 -1186 0
-33 23 -71 51 -86 35 -18 63 -18 98 1 29 15 44 44 97 188 l29 77 275 0 275 0
48 -125 c40 -104 53 -128 77 -140 36 -19 63 -19 99 -1 28 15 51 53 51 85 0 10
-86 247 -191 525 -105 279 -189 509 -187 511 2 2 21 0 43 -5 22 -5 335 -10
703 -10 l663 0 -3 -677 c-3 -671 -3 -679 -25 -725 -30 -66 -96 -133 -162 -165
l-56 -28 -920 -2 c-506 -2 -930 -5 -942 -8 -12 -3 -156 -120 -320 -260 l-298
-255 -5 228 c-3 151 -9 234 -17 248 -15 27 -52 41 -125 49 -107 12 -206 84
-256 185 l-27 55 -3 874 c-3 961 -4 933 58 1019 38 53 112 108 170 126 37 12
146 15 588 15 l542 1 0 -102z m319 -1216 c-55 -1 -143 -1 -197 0 l-98 3 93
245 c51 135 96 252 99 260 3 8 50 -102 104 -245 l98 -260 -99 -3z"/>
<path d="M3291 5106 c-87 -48 -50 -186 49 -186 51 0 100 49 100 99 0 75 -83
124 -149 87z"/>
<path d="M3269 4571 l-29 -29 0 -151 0 -151 -306 0 -306 0 -30 -30 c-27 -27
-30 -36 -25 -71 11 -85 50 -99 268 -99 l156 0 6 -83 c13 -166 88 -382 176
-511 l31 -45 -55 -45 c-121 -98 -257 -162 -408 -192 -108 -21 -137 -45 -137
-109 0 -33 6 -48 28 -70 26 -26 30 -27 102 -22 167 12 419 126 562 255 l38 34
38 -34 c143 -129 395 -243 562 -255 72 -5 76 -4 103 22 21 22 27 37 27 70 0
64 -29 88 -137 109 -151 30 -287 94 -408 192 l-55 45 31 45 c88 129 163 345
176 511 l6 83 156 0 c224 0 266 17 266 107 0 37 -5 49 -28 69 l-28 24 -304 0
-304 0 -3 156 -3 156 -28 24 c-41 35 -99 33 -138 -5z m207 -605 c-4 -40 -16
-107 -27 -147 -20 -75 -97 -249 -109 -249 -9 0 -85 164 -104 225 -18 57 -36
165 -36 213 l0 32 141 0 142 0 -7 -74z"/>
</g>
</svg>
